<svg width="105" height="23" viewBox="0 0 105 23" fill="none" xmlns="http://www.w3.org/2000/svg">
<path d="M3.31512 11.9173V17.7995H0.240723V1.76111H5.6893C6.55728 1.76111 7.34138 1.88962 8.0416 2.14665C8.74182 2.39633 9.33627 2.74882 9.82497 3.20412C10.321 3.65208 10.7002 4.19183 10.9628 4.82338C11.2327 5.45492 11.3676 6.15624 11.3676 6.92731C11.3676 7.64698 11.2327 8.31157 10.9628 8.92109C10.7002 9.5306 10.321 10.0593 9.82497 10.5073C9.33627 10.9479 8.74182 11.2931 8.0416 11.5427C7.34138 11.7924 6.55728 11.9173 5.6893 11.9173H3.31512ZM3.31512 9.40576H5.6893C6.12694 9.40576 6.50622 9.33967 6.82716 9.20749C7.14809 9.0753 7.41432 8.89539 7.62584 8.66773C7.84466 8.44008 8.00513 8.17939 8.10724 7.88564C8.21665 7.58456 8.27136 7.27246 8.27136 6.94934C8.27136 6.57482 8.21665 6.226 8.10724 5.90288C8.00513 5.57977 7.84466 5.29704 7.62584 5.0547C7.41432 4.81236 7.14809 4.62143 6.82716 4.4819C6.50622 4.34237 6.12694 4.27261 5.6893 4.27261H3.31512V9.40576Z" fill="black"/>
<path d="M14.2451 0.879883H20.8644V15.31H24.256V17.7995H14.2451V15.31H17.79V3.38037H14.2451V0.879883Z" fill="black"/>
<path d="M34.4639 17.7995C34.391 17.6526 34.329 17.4837 34.2779 17.2928C34.2269 17.1018 34.1831 16.8999 34.1466 16.6869C33.9789 16.8705 33.7856 17.0431 33.5668 17.2046C33.3479 17.3662 33.1036 17.5094 32.8337 17.6342C32.5711 17.7517 32.2794 17.8435 31.9584 17.9096C31.6375 17.983 31.2911 18.0198 30.9191 18.0198C30.3137 18.0198 29.7557 17.9316 29.2451 17.7554C28.7418 17.5792 28.3078 17.3331 27.9431 17.0174C27.5784 16.7016 27.294 16.3271 27.0897 15.8938C26.8855 15.4532 26.7834 14.9759 26.7834 14.4618C26.7834 13.2061 27.2466 12.2367 28.1729 11.5538C29.1065 10.8635 30.496 10.5183 32.3414 10.5183H34.0372V9.81333C34.0372 9.24053 33.8512 8.7889 33.4792 8.45844C33.1072 8.12064 32.5711 7.95174 31.8709 7.95174C31.2509 7.95174 30.7987 8.08759 30.5142 8.3593C30.2298 8.62367 30.0875 8.97984 30.0875 9.42779H27.046C27.046 8.92109 27.1554 8.44008 27.3742 7.98478C27.6003 7.52948 27.9249 7.12926 28.3479 6.78411C28.7783 6.43896 29.2998 6.16725 29.9125 5.96897C30.5325 5.76335 31.24 5.66054 32.035 5.66054C32.7498 5.66054 33.4136 5.74867 34.0263 5.92491C34.6463 6.10116 35.1824 6.36186 35.6346 6.707C36.0868 7.05215 36.4406 7.48909 36.6959 8.01783C36.9512 8.53922 37.0788 9.14507 37.0788 9.83536V14.9465C37.0788 15.5854 37.1189 16.1141 37.1991 16.5327C37.2794 16.9513 37.3961 17.3111 37.5493 17.6122V17.7995H34.4639ZM31.5646 15.6515C31.8709 15.6515 32.1554 15.6147 32.418 15.5413C32.6805 15.4679 32.9176 15.3724 33.1291 15.2549C33.3406 15.1374 33.523 15.0052 33.6762 14.8584C33.8293 14.7041 33.9497 14.5499 34.0372 14.3957V12.3469H32.4836C32.0095 12.3469 31.6047 12.3946 31.2692 12.4901C30.9336 12.5782 30.6601 12.7067 30.4486 12.8756C30.2371 13.0372 30.0803 13.2354 29.9781 13.4704C29.876 13.6981 29.825 13.9478 29.825 14.2195C29.825 14.6307 29.9672 14.9722 30.2517 15.2439C30.5434 15.5156 30.9811 15.6515 31.5646 15.6515Z" fill="black"/>
<path d="M45.569 12.7985L45.9191 14.0763L49.07 5.88085H52.4289L46.4223 19.5839C46.291 19.885 46.1196 20.2118 45.9081 20.5643C45.7039 20.9168 45.445 21.2436 45.1313 21.5447C44.8177 21.8458 44.4347 22.0991 43.9825 22.3047C43.5376 22.5104 43.0088 22.6132 42.3961 22.6132C42.2502 22.6132 42.1153 22.6058 41.9913 22.5911C41.8673 22.5838 41.7469 22.5691 41.6302 22.5471C41.5135 22.5324 41.3968 22.5104 41.2801 22.481C41.1707 22.459 41.0504 22.4296 40.9191 22.3929L41.291 20.0576C41.415 20.0576 41.5719 20.0613 41.7615 20.0686C41.9584 20.0833 42.1153 20.0907 42.232 20.0907C42.4727 20.0907 42.6842 20.0172 42.8665 19.8703C43.0562 19.7235 43.2167 19.5619 43.3479 19.3857C43.4792 19.2094 43.585 19.0479 43.6652 18.901C43.7455 18.7541 43.8002 18.6807 43.8293 18.6807L44.5624 17.2928L39.5514 5.88085H42.8775L45.569 12.7985Z" fill="black"/>
<path d="M64.3873 17.7995H61.3458V10.8488H56.8381V17.7995H53.7856V1.76111H56.8381V8.33727H61.3458V1.76111H64.3873V17.7995Z" fill="black"/>
<path d="M79.0372 4.28363H74.1247V17.7995H71.0394V4.28363H66.1926V1.76111H79.0372V4.28363Z" fill="black"/>
<path d="M84.5624 1.76111L86.0722 7.78651L87.79 1.76111H91.6083V17.7995H88.7856V13.0518L88.9169 5.55039L86.8272 12.5121H85.3064L83.4355 5.84781L83.5668 13.0518V17.7995H80.744V1.76111H84.5624Z" fill="black"/>
<path d="M97.5383 15.299H105V17.7995H94.453V1.76111H97.5383V15.299Z" fill="black"/>
</svg>
